<?xml version="1.0" ?><svg id="icone" viewBox="0 0 512 512" xmlns="http://www.w3.org/2000/svg"><title/><g id="cloud"><path d="M380.14,190.14a105.1,105.1,0,0,0-7.34-23.33,64.4,64.4,0,0,0-12.66,3.33,105.64,105.64,0,0,0-19.9-44.46A106,106,0,0,0,170,210c0,2.72.11,5.41.31,8.08a50,50,0,0,0-58.23,71.83A49.78,49.78,0,0,0,136,296H383a65,65,0,0,0,54.85-99.85,65,65,0,0,0-57.71-6Z" fill="#b6c4cf"/></g><line fill="none" stroke="#02005c" stroke-linecap="round" stroke-linejoin="round" stroke-width="20" x1="181" x2="350.41" y1="256" y2="256"/><path d="M157.5,150.81c-.07.19-.15.37-.22.56s-.15.36-.22.55" fill="none" stroke="#02005c" stroke-linecap="round" stroke-linejoin="round" stroke-width="20"/><path d="M447.87,234.41c1.86-33.07-22.91-63.16-55.72-67.76a65.39,65.39,0,0,0-32,3.5c-6.45-34.08-30-62.91-61.32-77.47C255,71,198,88,169.85,128.24" fill="none" stroke="#02005c" stroke-linecap="round" stroke-miterlimit="10" stroke-width="20"/><path d="M427.65,278.24a64.67,64.67,0,0,0,13.64-18.62" fill="none" stroke="#02005c" stroke-linecap="round" stroke-miterlimit="10" stroke-width="20"/><path d="M150.83,176.7a107.71,107.71,0,0,0-.53,21.39A50.48,50.48,0,0,0,91,224.22,48.32,48.32,0,0,0,91,268c3,5,6,11,11,15a83.42,83.42,0,0,0,12,8,120.9,120.9,0,0,0,18,5q129,1.5,258,0c5,0,11-3,15.92-4.16" fill="none" stroke="#02005c" stroke-linecap="round" stroke-miterlimit="10" stroke-width="20"/><path d="M230.31,256,211.85,374.4h44.41L230.31,469l81.57-127.8H270.76L311.88,256Z" fill="#fff"/><polygon fill="#fc0" points="270.76 341.2 302.22 276 250.32 276 234.97 374.4 256.25 374.4 250.77 394.4 276.26 394.4 275 398.98 299.11 361.2 290.77 361.2 300.42 341.2 270.76 341.2"/><line fill="none" stroke="#02005c" stroke-linecap="round" stroke-linejoin="round" stroke-width="20" x1="218.01" x2="217.92" y1="334.86" y2="335.44"/><polyline fill="none" points="214.13 359.76 211.84 374.4 256.25 374.4 230.31 469.01 311.88 341.2 270.76 341.2 311.88 256 230.31 256 221.98 309.42" stroke="#02005c" stroke-linecap="round" stroke-linejoin="round" stroke-width="20"/></svg>